<?xml version="1.0" encoding="utf-8"?>
<!-- Generator: Adobe Illustrator 26.1.0, SVG Export Plug-In . SVG Version: 6.00 Build 0)  -->
<svg version="1.1" id="Layer_1" xmlns="http://www.w3.org/2000/svg" xmlns:xlink="http://www.w3.org/1999/xlink" x="0px" y="0px"
	 viewBox="0 0 105 95" style="enable-background:new 0 0 105 95;" xml:space="preserve">
<style type="text/css">
	.st0{fill:#E0FBFC;}
</style>
<g>
	<path class="st0" d="M46.13,64.55c-3.51-0.01-6.38,2.83-6.41,6.33c-0.02,3.54,2.84,6.43,6.36,6.44c3.51,0.01,6.38-2.83,6.41-6.33
		C52.52,67.45,49.67,64.56,46.13,64.55z M78.05,70.96c0.01-3.51-2.83-6.38-6.33-6.41c-3.54-0.03-6.43,2.83-6.44,6.36
		c-0.01,3.5,2.83,6.38,6.33,6.41C75.14,77.35,78.04,74.49,78.05,70.96z"/>
	<path class="st0" d="M88.84,28.92c-0.52,1.71-1.06,3.41-1.56,5.13c-2.37,8.11-4.72,16.23-7.08,24.35c-0.41,1.4-1.06,1.9-2.51,1.9
		c-12.53,0-25.07,0-37.6,0c-1.45,0-2.11-0.5-2.5-1.9c-3.31-11.9-6.61-23.79-9.92-35.69c-0.06-0.23-0.13-0.45-0.22-0.74
		c-0.73,0-1.46,0-2.18,0c-2.08,0-4.16-0.05-6.24,0.02c-1.32,0.05-2.29-0.35-2.86-1.58c0-0.38,0-0.76,0-1.14
		c0.56-1.23,1.54-1.61,2.86-1.58c3.19,0.06,6.38,0.02,9.57,0.02c1.61,0,2.22,0.46,2.65,1.99c0.23,0.82,0.46,1.64,0.68,2.46
		c0.38,1.36,0.76,2.71,1.14,4.08c0.35,0,0.63,0,0.92,0c17.35,0,34.71,0.01,52.06-0.02c1.3,0,2.24,0.38,2.79,1.58
		C88.84,28.16,88.84,28.54,88.84,28.92z M58.9,38.99c-4.89,0-9.79,0.01-14.68,0c-1,0-1.76,0.37-2.18,1.28
		c-0.67,1.45,0.42,2.98,2.12,2.98c6.69,0.01,13.38,0,20.07,0c3.12,0,6.24,0,9.36,0c0.96,0,1.71-0.37,2.12-1.25
		c0.69-1.45-0.38-3-2.07-3.01C68.73,38.99,63.81,38.99,58.9,38.99z M58.88,47.51c-3.45,0-6.9-0.02-10.35,0.02
		c-0.49,0-1.04,0.14-1.47,0.38c-0.79,0.45-1.11,1.43-0.86,2.28c0.3,1.02,1.08,1.58,2.24,1.58c6.92,0,13.85,0,20.77,0
		c1.49,0,2.47-0.87,2.45-2.16c-0.02-1.26-0.98-2.1-2.43-2.1C65.78,47.51,62.33,47.51,58.88,47.51z"/>
	<path class="st0" d="M46.13,64.55c3.53,0.01,6.39,2.9,6.36,6.44c-0.03,3.5-2.9,6.34-6.41,6.33c-3.53-0.01-6.39-2.91-6.36-6.44
		C39.75,67.38,42.63,64.54,46.13,64.55z"/>
	<path class="st0" d="M78.05,70.96c-0.01,3.53-2.91,6.39-6.44,6.36c-3.49-0.03-6.34-2.91-6.33-6.41c0.01-3.53,2.91-6.39,6.44-6.36
		C75.22,64.57,78.06,67.45,78.05,70.96z"/>
</g>
</svg>
