<?xml version="1.0" encoding="utf-8"?>
<!-- Generator: Adobe Illustrator 26.3.1, SVG Export Plug-In . SVG Version: 6.00 Build 0)  -->
<svg version="1.1" id="Layer_1" xmlns="http://www.w3.org/2000/svg" xmlns:xlink="http://www.w3.org/1999/xlink" x="0px" y="0px"
	 viewBox="0 0 84 83.89" style="enable-background:new 0 0 84 83.89;" xml:space="preserve">
<style type="text/css">
	.st0{fill:#EE6C4D;}
</style>
<g>
	<path class="st0" d="M6.8,46.45c0.06,0.42,0.11,0.94,0.2,1.46c0.32,1.78,1.48,3.08,2.57,4.41c5.84,7.15,11.66,14.31,17.52,21.44
		c1.64,1.99,3.78,2.82,6.35,2.41c2.27-0.36,3.89-1.66,5.08-3.58c6.82-10.99,13.64-21.98,20.46-32.96
		c5.93-9.55,11.85-19.09,17.76-28.64c0.25-0.4,0.44-0.91,0.46-1.37c0.04-0.87-0.58-1.61-1.4-1.88c-0.97-0.32-1.72,0.04-2.37,0.77
		C68.22,14.4,63,20.29,57.79,26.19c-7.71,8.71-15.42,17.43-23.13,26.14c-0.92,1.03-1.83,1.08-2.85,0.16
		c-0.68-0.61-1.35-1.23-2.03-1.85c-3.56-3.24-7.09-6.5-10.68-9.71c-2.34-2.09-5.07-2.59-7.94-1.29C8.32,40.92,6.93,43.25,6.8,46.45z
		"/>
	<path class="st0" d="M6.8,46.45c0.13-3.2,1.52-5.54,4.36-6.81c2.87-1.29,5.59-0.8,7.94,1.29c3.59,3.2,7.12,6.47,10.68,9.71
		c0.68,0.62,1.35,1.24,2.03,1.85c1.02,0.92,1.93,0.88,2.85-0.16c7.71-8.71,15.42-17.43,23.13-26.14C63,20.29,68.22,14.4,73.43,8.5
		c0.64-0.73,1.39-1.09,2.37-0.77c0.82,0.27,1.44,1.01,1.4,1.88c-0.02,0.46-0.21,0.97-0.46,1.37c-5.91,9.55-11.84,19.1-17.76,28.64
		C52.16,50.61,45.34,61.6,38.52,72.59c-1.19,1.92-2.81,3.22-5.08,3.58c-2.57,0.41-4.71-0.42-6.35-2.41
		c-5.85-7.13-11.68-14.29-17.52-21.44C8.48,50.98,7.32,49.69,7,47.91C6.91,47.4,6.86,46.88,6.8,46.45z"/>
</g>
</svg>
