<?xml version="1.0" encoding="utf-8"?>
<!-- Generator: Adobe Illustrator 26.1.0, SVG Export Plug-In . SVG Version: 6.00 Build 0)  -->
<svg version="1.1" id="Layer_1" xmlns="http://www.w3.org/2000/svg" xmlns:xlink="http://www.w3.org/1999/xlink" x="0px" y="0px"
	 viewBox="0 0 91.74 92.61" style="enable-background:new 0 0 91.74 92.61;" xml:space="preserve">
<style type="text/css">
	.st0{fill-rule:evenodd;clip-rule:evenodd;fill:#3D5A80;}
	.st1{fill:#FFFFFF;}
</style>
<g>
	<path class="st0" d="M14.37,4.8h63c5.52,0,10,4.48,10,10v63c0,5.52-4.48,10-10,10h-63c-5.52,0-10-4.48-10-10v-63
		C4.37,9.28,8.85,4.8,14.37,4.8z"/>
	<g>
		<path class="st1" d="M47.1,31.24c0.11,0.03,0.2,0.06,0.28,0.08c2.7,0.71,4.59,3.14,4.6,5.93c0.01,2.15,0.02,4.29,0,6.44
			c-0.02,1.76-0.69,3.25-1.96,4.47c-0.82,0.79-1.81,1.26-2.94,1.49c0,0.16,0,0.3,0,0.43c0,1.11,0,2.22,0,3.33
			c0,0.64-0.31,1.06-0.86,1.2c-0.87,0.23-1.58-0.29-1.58-1.2c-0.01-1.25,0-2.5,0-3.77c-0.12-0.04-0.23-0.07-0.34-0.1
			c-2.69-0.73-4.56-3.14-4.57-5.92c-0.01-2.13-0.01-4.27,0.01-6.4c0.01-0.52,0.07-1.05,0.21-1.55c0.64-2.26,2.14-3.68,4.37-4.36
			c0.12-0.04,0.3-0.16,0.3-0.25c0.03-0.58,0.01-1.17,0.01-1.85c-0.83,0.26-1.62,0.44-2.35,0.76c-2.6,1.15-5.18,2.33-7.77,3.52
			c-0.59,0.27-0.92,0.73-0.92,1.41c0.01,5.29,0,10.57,0,15.86c0,1.86,0.38,3.64,1.15,5.35c2.75,6.11,9.91,8.97,15.93,6.21
			c4.87-2.24,7.34-6.2,7.43-11.54c0.09-5.25,0.01-10.5,0.03-15.75c0-0.8-0.35-1.29-1.05-1.61c-2.7-1.21-5.39-2.43-8.1-3.62
			c-0.58-0.26-1.22-0.39-1.88-0.59C47.1,29.96,47.1,30.59,47.1,31.24z M49.53,40.45c0-1.12,0.03-2.25-0.01-3.37
			c-0.06-1.99-1.65-3.5-3.67-3.49c-2.02,0-3.63,1.51-3.66,3.5c-0.03,2.23-0.02,4.47,0,6.7c0,0.76,0.26,1.45,0.71,2.06
			c0.93,1.25,2.58,1.76,4.11,1.28c1.47-0.47,2.48-1.79,2.51-3.35C49.55,42.67,49.53,41.56,49.53,40.45z"/>
		<path class="st1" d="M47.1,31.24c0-0.65,0-1.28,0-2.01c0.66,0.2,1.29,0.33,1.88,0.59c2.71,1.19,5.4,2.41,8.1,3.62
			c0.7,0.31,1.05,0.81,1.05,1.61c-0.01,5.25,0.06,10.5-0.03,15.75c-0.09,5.34-2.56,9.3-7.43,11.54c-6.02,2.76-13.18-0.1-15.93-6.21
			c-0.76-1.7-1.15-3.48-1.15-5.35c0-5.29,0-10.57,0-15.86c0-0.68,0.33-1.14,0.92-1.41c2.58-1.19,5.17-2.37,7.77-3.52
			c0.73-0.32,1.52-0.49,2.35-0.76c0,0.68,0.01,1.27-0.01,1.85c0,0.09-0.18,0.21-0.3,0.25c-2.23,0.68-3.73,2.11-4.37,4.36
			c-0.14,0.5-0.2,1.03-0.21,1.55c-0.02,2.13-0.02,4.27-0.01,6.4c0.01,2.78,1.88,5.19,4.57,5.92c0.11,0.03,0.21,0.07,0.34,0.1
			c0,1.27-0.01,2.52,0,3.77c0.01,0.9,0.71,1.42,1.58,1.2c0.55-0.15,0.86-0.56,0.86-1.2c0.01-1.11,0-2.22,0-3.33
			c0-0.14,0-0.28,0-0.43c1.13-0.23,2.12-0.7,2.94-1.49c1.27-1.22,1.94-2.71,1.96-4.47c0.02-2.15,0.01-4.29,0-6.44
			c-0.01-2.8-1.9-5.22-4.6-5.93C47.3,31.3,47.21,31.27,47.1,31.24z"/>
		<path class="st1" d="M49.53,40.45c0,1.11,0.02,2.22,0,3.33c-0.03,1.56-1.04,2.89-2.51,3.35c-1.53,0.48-3.18-0.03-4.11-1.28
			c-0.46-0.61-0.71-1.31-0.71-2.06c-0.01-2.23-0.03-4.47,0-6.7c0.03-1.99,1.64-3.5,3.66-3.5s3.62,1.5,3.67,3.49
			C49.56,38.2,49.53,39.32,49.53,40.45z"/>
	</g>
</g>
</svg>
