<?xml version="1.0" encoding="utf-8"?>
<!-- Generator: Adobe Illustrator 26.1.0, SVG Export Plug-In . SVG Version: 6.00 Build 0)  -->
<svg version="1.1" id="Layer_1" xmlns="http://www.w3.org/2000/svg" xmlns:xlink="http://www.w3.org/1999/xlink" x="0px" y="0px"
	 viewBox="0 0 91.74 92.61" style="enable-background:new 0 0 91.74 92.61;" xml:space="preserve">
<style type="text/css">
	.st0{fill-rule:evenodd;clip-rule:evenodd;fill:#293241;}
	.st1{fill:#FFFFFF;}
</style>
<g>
	<path class="st0" d="M14.37,4.8h63c5.52,0,10,4.48,10,10v63c0,5.52-4.48,10-10,10h-63c-5.52,0-10-4.48-10-10v-63
		C4.37,9.28,8.85,4.8,14.37,4.8z"/>
	<g>
		<path class="st1" d="M54.04,47.16c0.21,0,0.36,0,0.52,0c2.1,0,4.2,0,6.3,0c0.16,0,0.32,0,0.47-0.05c0.29-0.09,0.46-0.33,0.37-0.61
			c-0.07-0.2-0.28-0.38-0.47-0.51c-0.1-0.07-0.28-0.03-0.43-0.03c-2.09,0-4.17,0-6.26,0c-0.16,0-0.31,0-0.49,0c0-0.95,0-1.85,0-2.81
			c0.17,0,0.32,0,0.47,0c2.1,0,4.2,0,6.3,0c0.13,0,0.3,0.04,0.39-0.02c0.19-0.13,0.41-0.3,0.48-0.5c0.1-0.27-0.07-0.52-0.36-0.62
			c-0.15-0.05-0.31-0.06-0.47-0.06c-2.11,0-4.23,0-6.34,0c-0.14,0-0.29,0-0.45,0c-0.05-0.93-0.09-1.84-0.14-2.79
			c0.09,0,0.23,0,0.38,0c2.18,0,4.36,0,6.54,0c0.16,0,0.32,0,0.47-0.05c0.29-0.09,0.42-0.31,0.39-0.61
			c-0.03-0.3-0.21-0.48-0.51-0.52c-0.13-0.02-0.26-0.01-0.4-0.01c-2.43,0-4.86,0.01-7.29-0.01c-0.19,0-0.43-0.1-0.57-0.24
			c-0.76-0.71-1.63-1.11-2.67-1.11c-0.68,0-1.37,0-2.07,0c-0.02-0.07-0.05-0.12-0.05-0.17c0-1.25-0.02-2.51,0.01-3.76
			c0.03-1.15,0.99-2.16,2.13-2.32c0.18-0.02,0.37-0.04,0.55-0.04c3.66,0,7.32,0,10.97,0c1.34,0,2.33,0.75,2.62,1.97
			c0.06,0.24,0.07,0.5,0.07,0.75c0,8.64,0,17.27,0,25.91c0,1.67-1.05,2.72-2.72,2.72c-3.7,0-7.4,0.01-11.09,0
			c-1.6,0-2.78-1.42-2.49-3c0.62,0,1.25,0,1.88,0c2.32,0,3.94-1.61,3.95-3.93c0.01-2.36,0-4.73,0-7.09
			C54.04,47.51,54.04,47.37,54.04,47.16z M56.32,56.46c1.15,0.01,2.07-0.89,2.08-2.03c0.01-1.17-0.89-2.1-2.05-2.1
			c-1.14,0-2.07,0.9-2.08,2.04C54.25,55.53,55.16,56.45,56.32,56.46z M56.45,35.16c0.3,0,0.61,0,0.91,0c1.23,0,2.46,0,3.68,0
			c0.42,0,0.66-0.22,0.68-0.56c0.01-0.36-0.24-0.6-0.66-0.63c-0.08,0-0.16,0-0.24,0c-2.92,0-5.84,0-8.76,0c-0.17,0-0.35,0-0.51,0.06
			c-0.38,0.13-0.54,0.62-0.25,0.9c0.15,0.14,0.42,0.23,0.63,0.23C53.44,35.17,54.94,35.16,56.45,35.16z"/>
		<path class="st1" d="M40.02,37.81c3.34,0,6.68,0,10.02,0c1.75,0,2.8,1.06,2.81,2.81c0,4.69,0,9.38,0,14.06
			c0,1.72-1.07,2.8-2.79,2.8c-6.68,0-13.36,0-20.05,0c-1.7,0-2.78-1.07-2.78-2.76c0-4.73,0-9.46,0-14.18c0-1.65,1.08-2.73,2.73-2.73
			C33.31,37.81,36.67,37.81,40.02,37.81z M29.63,52.78c6.97,0,13.89,0,20.81,0c0-4.21,0-8.38,0-12.56c-6.95,0-13.87,0-20.81,0
			C29.63,44.42,29.63,48.59,29.63,52.78z M40.06,54.36c-0.37,0-0.74-0.01-1.11,0c-0.35,0.01-0.59,0.25-0.6,0.56
			c-0.01,0.31,0.22,0.59,0.56,0.6c0.75,0.02,1.5,0.02,2.25,0c0.34-0.01,0.57-0.3,0.56-0.61c-0.01-0.31-0.25-0.55-0.6-0.56
			C40.77,54.35,40.41,54.36,40.06,54.36z"/>
		<path class="st1" d="M44.9,58.71c0,0.41,0,0.8,0,1.2c0,0.38,0,0.76,0,1.19c0.55,0,1.07,0,1.58,0c0.51,0,0.76,0.21,0.75,0.61
			c-0.01,0.38-0.26,0.58-0.74,0.58c-4.29,0-8.58,0-12.87,0c-0.05,0-0.11,0-0.16,0c-0.38-0.03-0.61-0.26-0.6-0.6
			c0-0.34,0.23-0.57,0.61-0.58c0.55-0.01,1.11,0,1.7,0c0-0.81,0-1.58,0-2.38C38.41,58.71,41.62,58.71,44.9,58.71z"/>
	</g>
</g>
</svg>
