<?xml version="1.0" encoding="utf-8"?>
<!-- Generator: Adobe Illustrator 26.1.0, SVG Export Plug-In . SVG Version: 6.00 Build 0)  -->
<svg version="1.1" id="Layer_1" xmlns="http://www.w3.org/2000/svg" xmlns:xlink="http://www.w3.org/1999/xlink" x="0px" y="0px"
	 viewBox="0 0 91.74 92.61" style="enable-background:new 0 0 91.74 92.61;" xml:space="preserve">
<style type="text/css">
	.st0{fill-rule:evenodd;clip-rule:evenodd;fill:#3D5A80;}
	.st1{fill:#FFFFFF;}
</style>
<g>
	<path class="st0" d="M14.37,4.8h63c5.52,0,10,4.48,10,10v63c0,5.52-4.48,10-10,10h-63c-5.52,0-10-4.48-10-10v-63
		C4.37,9.28,8.85,4.8,14.37,4.8z"/>
	<g>
		<path class="st1" d="M65.09,53.06c0,0.7,0,1.4,0,2.1c-0.02,0.06-0.05,0.11-0.06,0.17c-0.43,2.75-3.22,4.71-5.4,5.01
			c-1.3,0.17-2.4-0.32-3.43-1.05c-1.19-0.84-2.16-1.93-3.16-2.98c-0.86-0.91-1.73-1.8-2.64-2.66c-0.54-0.52-1.22-0.72-1.99-0.71
			c-1.69,0.03-3.38,0.03-5.07,0c-0.74-0.01-1.37,0.2-1.94,0.66c-0.26,0.21-0.53,0.43-0.76,0.67c-0.97,1.01-1.92,2.04-2.88,3.06
			c-0.87,0.91-1.77,1.77-2.87,2.39c-0.77,0.43-1.58,0.7-2.47,0.64c-2.37-0.15-4.87-2.17-5.54-4.48c-0.08-0.29-0.15-0.58-0.22-0.87
			c0-0.63,0-1.25,0-1.88c0.02-0.17,0.05-0.34,0.06-0.52c0.09-1.34,0.14-2.67,0.26-4c0.28-3.16,0.75-6.3,1.34-9.42
			c0.79-4.19,4.69-7.21,8.96-6.95c1.14,0.07,2.16,0.47,3.18,0.91c0.92,0.4,1.87,0.73,2.88,0.76c1.22,0.04,2.45,0.03,3.67,0.06
			c1.59,0.04,3.09-0.29,4.55-0.92c0.81-0.35,1.67-0.67,2.53-0.77c4.39-0.52,8.52,2.58,9.35,6.94c0.75,3.97,1.3,7.97,1.52,12.01
			C64.99,51.85,65.04,52.46,65.09,53.06z M35.81,41.49c-0.74,0-1.42-0.01-2.11,0c-0.77,0.02-1.4,0.59-1.49,1.33
			c-0.1,0.79,0.34,1.5,1.08,1.71c0.25,0.07,0.52,0.07,0.78,0.08c0.57,0.01,1.14,0,1.74,0c0,0.73-0.01,1.4,0,2.07
			c0.01,0.74,0.52,1.36,1.23,1.5c1.01,0.2,1.87-0.51,1.9-1.58c0.02-0.65,0-1.3,0-1.99c0.17,0,0.3,0,0.44,0
			c0.59-0.01,1.18,0.01,1.76-0.02c0.74-0.05,1.3-0.63,1.4-1.38c0.09-0.69-0.36-1.41-1.05-1.63c-0.22-0.07-0.47-0.08-0.7-0.09
			c-0.61-0.01-1.22,0-1.85,0c0-0.7,0.01-1.35,0-2c-0.02-0.96-0.7-1.63-1.61-1.61c-0.89,0.02-1.52,0.7-1.53,1.65
			C35.8,40.16,35.81,40.79,35.81,41.49z M55.79,46c0-1.23-1-2.22-2.22-2.22s-2.22,1.01-2.21,2.23c0.01,1.22,1.01,2.22,2.23,2.21
			C54.82,48.22,55.8,47.23,55.79,46z M57.29,37.87c-1.23,0-2.23,0.98-2.24,2.2c-0.01,1.21,0.99,2.23,2.21,2.24
			c1.21,0.01,2.22-0.99,2.23-2.21C59.51,38.88,58.52,37.88,57.29,37.87z"/>
	</g>
</g>
</svg>
