<?xml version="1.0" encoding="utf-8"?>
<!-- Generator: Adobe Illustrator 26.1.0, SVG Export Plug-In . SVG Version: 6.00 Build 0)  -->
<svg version="1.1" id="Layer_1" xmlns="http://www.w3.org/2000/svg" xmlns:xlink="http://www.w3.org/1999/xlink" x="0px" y="0px"
	 viewBox="0 0 91.74 92.61" style="enable-background:new 0 0 91.74 92.61;" xml:space="preserve">
<style type="text/css">
	.st0{fill-rule:evenodd;clip-rule:evenodd;fill:#3D5A80;}
	.st1{fill:#FFFFFF;}
</style>
<g>
	<path class="st0" d="M14.37,4.8h63c5.52,0,10,4.48,10,10v63c0,5.52-4.48,10-10,10h-63c-5.52,0-10-4.48-10-10v-63
		C4.37,9.28,8.85,4.8,14.37,4.8z"/>
	<g>
		<path class="st1" d="M64.1,58.26c-0.17,0.76-0.43,1.47-0.96,2.07c-0.68,0.77-1.52,1.25-2.56,1.28c-1.04,0.03-2.08,0.01-3.18,0.01
			c0-0.15,0-0.29,0-0.43c0-4.69,0.01-9.37,0-14.06c-0.01-2.3-0.46-4.49-1.68-6.49c-1.66-2.72-4.01-4.54-7.11-5.28
			c-3.89-0.93-7.38-0.03-10.39,2.61c-1.88,1.66-3.08,3.75-3.58,6.2c-0.2,0.96-0.28,1.95-0.28,2.93c-0.03,4.69-0.01,9.37-0.01,14.06
			c0,0.14,0,0.28,0,0.4c-1.23,0-2.44,0.12-3.61-0.03c-1.72-0.22-3.04-1.81-3.07-3.55c-0.04-2.68-0.05-5.36,0-8.04
			c0.03-1.66,0.87-2.87,2.44-3.51c0.18-0.07,0.24-0.17,0.25-0.37c0.15-4.12,1.68-7.67,4.61-10.56c3.6-3.55,7.97-5.05,12.99-4.37
			c4.79,0.64,8.44,3.13,11.05,7.17c1.52,2.36,2.27,4.96,2.39,7.75c0.01,0.12,0.11,0.3,0.21,0.34c1.38,0.57,2.17,1.59,2.44,3.04
			c0.01,0.05,0.03,0.09,0.05,0.13C64.1,52.47,64.1,55.37,64.1,58.26z"/>
		<path class="st1" d="M35.62,54.03c0-2.05,0-4.1,0-6.15c0-0.71,0.37-1.21,1-1.38c0.77-0.2,1.54,0.3,1.65,1.09
			c0.02,0.15,0.03,0.31,0.03,0.46c0,3.99,0,7.99,0,11.98c0,0.66-0.19,1.2-0.83,1.48c-0.89,0.39-1.85-0.26-1.85-1.26
			C35.61,58.18,35.62,56.1,35.62,54.03z"/>
		<path class="st1" d="M56.14,54.06c0,2.05,0.01,4.1,0,6.15c0,0.85-0.6,1.43-1.41,1.39c-0.62-0.03-1.15-0.5-1.24-1.12
			c-0.02-0.13-0.03-0.26-0.03-0.39c0-4.04,0-8.08,0-12.13c0-0.74,0.31-1.23,0.88-1.44c0.87-0.32,1.78,0.29,1.8,1.23
			c0.02,1.33,0.01,2.66,0.01,3.98C56.14,52.52,56.14,53.29,56.14,54.06z"/>
	</g>
</g>
</svg>
