<?xml version="1.0" encoding="utf-8"?>
<!-- Generator: Adobe Illustrator 26.1.0, SVG Export Plug-In . SVG Version: 6.00 Build 0)  -->
<svg version="1.1" id="Layer_1" xmlns="http://www.w3.org/2000/svg" xmlns:xlink="http://www.w3.org/1999/xlink" x="0px" y="0px"
	 viewBox="0 0 515.21 86.03" style="enable-background:new 0 0 515.21 86.03;" xml:space="preserve">
<style type="text/css">
	.st0{fill:#E0FBFC;}
	.st1{fill:#EE6C4D;}
</style>
<g>
	<g>
		<path class="st0" d="M92.18,53.6V32.95h5.72l10.5,12.56h-2.65V32.95h6.78V53.6h-5.72l-10.5-12.56h2.65V53.6H92.18z"/>
		<path class="st0" d="M125.86,54.07c-3.17,0-5.63-0.86-7.4-2.57c-1.77-1.71-2.65-4.11-2.65-7.2V32.95h6.96V44.1
			c0,1.57,0.28,2.69,0.85,3.35c0.57,0.66,1.34,0.99,2.3,0.99c0.98,0,1.75-0.33,2.32-0.99c0.56-0.66,0.84-1.77,0.84-3.35V32.95h6.84
			v11.35c0,3.09-0.88,5.49-2.65,7.2C131.49,53.21,129.02,54.07,125.86,54.07z"/>
		<path class="st0" d="M139.19,53.6V32.95h6.96V48.2h9.32v5.4H139.19z"/>
		<path class="st0" d="M157.47,53.6V32.95h6.96V48.2h9.32v5.4H157.47z"/>
		<path class="st1" d="M175.76,53.6V32.95h9.94c1.93,0,3.59,0.31,5,0.94c1.41,0.63,2.49,1.53,3.26,2.7
			c0.77,1.17,1.15,2.55,1.15,4.14c0,1.59-0.38,2.97-1.15,4.13c-0.77,1.16-1.85,2.06-3.26,2.7c-1.41,0.64-3.07,0.96-5,0.96h-6.07
			l3.1-2.98v8.05H175.76z M182.72,46.31l-3.1-3.16h5.63c0.96,0,1.68-0.22,2.14-0.65c0.46-0.43,0.69-1.02,0.69-1.77
			c0-0.75-0.23-1.34-0.69-1.77c-0.46-0.43-1.17-0.65-2.14-0.65h-5.63l3.1-3.16V46.31z"/>
		<path class="st1" d="M208.61,54.07c-1.69,0-3.25-0.27-4.67-0.8c-1.43-0.53-2.66-1.28-3.7-2.26c-1.04-0.97-1.85-2.12-2.43-3.44
			c-0.58-1.32-0.87-2.75-0.87-4.3c0-1.57,0.29-3.01,0.87-4.32c0.58-1.31,1.39-2.45,2.43-3.42c1.04-0.97,2.28-1.73,3.7-2.26
			c1.43-0.53,2.97-0.8,4.64-0.8c1.69,0,3.24,0.27,4.66,0.8c1.42,0.53,2.64,1.28,3.69,2.26c1.04,0.97,1.85,2.11,2.43,3.42
			c0.58,1.31,0.87,2.75,0.87,4.32c0,1.55-0.29,2.99-0.87,4.3c-0.58,1.32-1.39,2.46-2.43,3.44c-1.04,0.97-2.27,1.72-3.69,2.26
			C211.82,53.8,210.28,54.07,208.61,54.07z M208.58,48.43c0.65,0,1.25-0.12,1.81-0.35c0.56-0.24,1.05-0.58,1.47-1.02
			c0.42-0.44,0.75-0.98,0.99-1.62c0.24-0.64,0.35-1.36,0.35-2.17c0-0.81-0.12-1.53-0.35-2.17s-0.57-1.18-0.99-1.62
			c-0.42-0.44-0.91-0.78-1.47-1.02c-0.56-0.24-1.17-0.35-1.81-0.35c-0.65,0-1.25,0.12-1.81,0.35c-0.56,0.24-1.05,0.58-1.47,1.02
			c-0.42,0.44-0.75,0.98-0.99,1.62s-0.35,1.36-0.35,2.17c0,0.81,0.12,1.53,0.35,2.17c0.24,0.64,0.56,1.18,0.99,1.62
			c0.42,0.44,0.91,0.78,1.47,1.02C207.33,48.32,207.93,48.43,208.58,48.43z"/>
		<path class="st1" d="M222.85,53.6V32.95h6.96V53.6H222.85z"/>
		<path class="st1" d="M233.26,53.6V32.95h5.72l10.5,12.56h-2.65V32.95h6.78V53.6h-5.72l-10.5-12.56h2.65V53.6H233.26z"/>
		<path class="st1" d="M261.54,53.6V38.35h-6.05v-5.4h19.05v5.4h-6.05V53.6H261.54z"/>
		<path class="st1" d="M283.28,48.35h10.32v5.25h-17.16V32.95h16.78v5.25h-9.94V48.35z M282.81,40.62h9.2v5.01h-9.2V40.62z"/>
		<path class="st1" d="M296.37,53.6V32.95h9.94c1.93,0,3.59,0.31,5,0.94c1.41,0.63,2.49,1.53,3.26,2.7
			c0.77,1.17,1.15,2.55,1.15,4.14c0,1.59-0.38,2.96-1.15,4.11s-1.85,2.03-3.26,2.64c-1.41,0.61-3.07,0.91-5,0.91h-6.08l3.1-2.86
			v8.05H296.37z M303.33,46.31l-3.1-3.16h5.63c0.96,0,1.68-0.22,2.14-0.65c0.46-0.43,0.69-1.02,0.69-1.77
			c0-0.75-0.23-1.34-0.69-1.77c-0.46-0.43-1.18-0.65-2.14-0.65h-5.63l3.1-3.16V46.31z M308.73,53.6l-5.07-7.52h7.37l5.13,7.52
			H308.73z"/>
		<path class="st0" d="M325.27,48.35h10.32v5.25h-17.16V32.95h16.78v5.25h-9.94V48.35z M324.8,40.62h9.2v5.01h-9.2V40.62z"/>
		<path class="st0" d="M336.3,53.6l9.2-12.86l-0.03,4.87l-8.91-12.65h7.82l5.19,7.67l-3.33,0.03l5.07-7.7h7.49l-8.91,12.39V40.5
			l9.35,13.09h-7.96l-5.19-8.02l3.21-0.03l-5.07,8.05H336.3z"/>
		<path class="st0" d="M370.72,54.07c-1.65,0-3.18-0.26-4.59-0.78s-2.62-1.26-3.66-2.23c-1.03-0.96-1.83-2.1-2.4-3.42
			c-0.57-1.32-0.86-2.77-0.86-4.36c0-1.59,0.28-3.05,0.86-4.37c0.57-1.32,1.37-2.46,2.4-3.42c1.03-0.96,2.25-1.71,3.66-2.23
			c1.41-0.52,2.93-0.78,4.59-0.78c2.03,0,3.82,0.35,5.38,1.06c1.56,0.71,2.86,1.73,3.88,3.07l-4.39,3.92
			c-0.61-0.77-1.28-1.36-2.02-1.78c-0.74-0.42-1.57-0.63-2.49-0.63c-0.73,0-1.39,0.12-1.98,0.35s-1.1,0.58-1.52,1.03
			s-0.75,1-0.99,1.64c-0.24,0.64-0.35,1.35-0.35,2.14s0.12,1.5,0.35,2.14c0.24,0.64,0.57,1.18,0.99,1.64s0.93,0.8,1.52,1.03
			c0.59,0.24,1.25,0.35,1.98,0.35c0.92,0,1.75-0.21,2.49-0.63s1.41-1.02,2.02-1.78l4.39,3.92c-1.02,1.32-2.32,2.33-3.88,3.05
			C374.54,53.71,372.74,54.07,370.72,54.07z"/>
		<path class="st0" d="M388.91,48.35h10.32v5.25h-17.16V32.95h16.78v5.25h-9.94V48.35z M388.44,40.62h9.2v5.01h-9.2V40.62z"/>
		<path class="st0" d="M402.01,53.6V32.95h9.94c1.93,0,3.59,0.31,5,0.94c1.41,0.63,2.49,1.53,3.26,2.7
			c0.77,1.17,1.15,2.55,1.15,4.14c0,1.59-0.38,2.97-1.15,4.13c-0.77,1.16-1.85,2.06-3.26,2.7c-1.41,0.64-3.07,0.96-5,0.96h-6.08
			l3.1-2.98v8.05H402.01z M408.97,46.31l-3.1-3.16h5.63c0.96,0,1.68-0.22,2.14-0.65c0.46-0.43,0.69-1.02,0.69-1.77
			c0-0.75-0.23-1.34-0.69-1.77c-0.46-0.43-1.18-0.65-2.14-0.65h-5.63l3.1-3.16V46.31z"/>
		<path class="st0" d="M427.75,53.6V38.35h-6.04v-5.4h19.05v5.4h-6.05V53.6H427.75z"/>
		<path class="st0" d="M442.65,53.6V32.95h6.96V53.6H442.65z"/>
		<path class="st0" d="M463.91,54.07c-1.69,0-3.25-0.27-4.67-0.8c-1.43-0.53-2.66-1.28-3.7-2.26c-1.04-0.97-1.85-2.12-2.43-3.44
			c-0.58-1.32-0.87-2.75-0.87-4.3c0-1.57,0.29-3.01,0.87-4.32c0.58-1.31,1.39-2.45,2.43-3.42s2.28-1.73,3.7-2.26
			c1.42-0.53,2.97-0.8,4.64-0.8c1.69,0,3.24,0.27,4.66,0.8c1.42,0.53,2.64,1.28,3.69,2.26s1.85,2.11,2.43,3.42
			c0.58,1.31,0.87,2.75,0.87,4.32c0,1.55-0.29,2.99-0.87,4.3c-0.58,1.32-1.39,2.46-2.43,3.44c-1.04,0.97-2.27,1.72-3.69,2.26
			C467.12,53.8,465.58,54.07,463.91,54.07z M463.88,48.43c0.65,0,1.25-0.12,1.81-0.35c0.56-0.24,1.05-0.58,1.47-1.02
			s0.75-0.98,0.99-1.62c0.24-0.64,0.35-1.36,0.35-2.17c0-0.81-0.12-1.53-0.35-2.17s-0.57-1.18-0.99-1.62s-0.91-0.78-1.47-1.02
			c-0.56-0.24-1.16-0.35-1.81-0.35c-0.65,0-1.25,0.12-1.81,0.35s-1.05,0.58-1.47,1.02s-0.75,0.98-0.99,1.62
			c-0.24,0.64-0.35,1.36-0.35,2.17c0,0.81,0.12,1.53,0.35,2.17c0.24,0.64,0.57,1.18,0.99,1.62s0.91,0.78,1.47,1.02
			C462.62,48.32,463.23,48.43,463.88,48.43z"/>
		<path class="st0" d="M478.15,53.6V32.95h5.72l10.5,12.56h-2.65V32.95h6.78V53.6h-5.72l-10.5-12.56h2.65V53.6H478.15z"/>
	</g>
	<g>
		<path class="st0" d="M22.51,72.29l-5.8-6.22l56.44-52.33l5.8,6.22L22.51,72.29z M48.15,69.34c-5.06,0-9.65-1.2-13.77-3.59
			c-4.11-2.39-7.38-5.59-9.81-9.6c-2.43-4.01-3.64-8.44-3.64-13.29c0-4.85,1.21-9.28,3.64-13.29c2.43-4.01,5.7-7.19,9.81-9.55
			c4.11-2.36,8.7-3.53,13.77-3.53s9.65,1.18,13.77,3.53c4.11,2.36,7.4,5.54,9.86,9.55c2.46,4.01,3.69,8.44,3.69,13.29
			c0,4.85-1.23,9.28-3.69,13.29c-2.46,4.01-5.75,7.21-9.86,9.6C57.8,68.14,53.21,69.34,48.15,69.34z M48.15,54.67
			c2.18,0,4.17-0.53,5.96-1.58s3.22-2.48,4.27-4.27c1.06-1.79,1.58-3.78,1.58-5.96c0-2.18-0.53-4.15-1.58-5.91
			c-1.05-1.76-2.48-3.17-4.27-4.22c-1.79-1.05-3.78-1.58-5.96-1.58c-2.18,0-4.15,0.53-5.91,1.58c-1.76,1.06-3.17,2.46-4.22,4.22
			c-1.05,1.76-1.58,3.73-1.58,5.91c0,2.18,0.53,4.17,1.58,5.96c1.06,1.79,2.46,3.22,4.22,4.27C44,54.14,45.96,54.67,48.15,54.67z"/>
	</g>
</g>
</svg>
