<?xml version="1.0" encoding="utf-8"?>
<!-- Generator: Adobe Illustrator 26.3.1, SVG Export Plug-In . SVG Version: 6.00 Build 0)  -->
<svg version="1.1" id="Layer_1" xmlns="http://www.w3.org/2000/svg" xmlns:xlink="http://www.w3.org/1999/xlink" x="0px" y="0px"
	 viewBox="0 0 82.82 83.71" style="enable-background:new 0 0 82.82 83.71;" xml:space="preserve">
<style type="text/css">
	.st0{fill-rule:evenodd;clip-rule:evenodd;fill:#E0FBFC;}
	.st1{fill-rule:evenodd;clip-rule:evenodd;fill:#EE6C4D;}
	.st2{fill-rule:evenodd;clip-rule:evenodd;fill:#FAB270;}
	.st3{fill-rule:evenodd;clip-rule:evenodd;fill:#F17421;}
	.st4{fill-rule:evenodd;clip-rule:evenodd;fill:#FFFFFF;}
	.st5{opacity:0.25;fill-rule:evenodd;clip-rule:evenodd;}
	.st6{fill-rule:evenodd;clip-rule:evenodd;fill:#F7BD9F;}
	.st7{fill-rule:evenodd;clip-rule:evenodd;fill:#2B2B50;}
	.st8{fill-rule:evenodd;clip-rule:evenodd;fill:#F1757E;}
	.st9{fill:#FFFFFF;}
</style>
<g transform="matrix(0.8,0,0,0.8,-1996.72,-1325.99)">
	<path class="st0" d="M2595.48,1709.81c0,13.77-5.82,26.19-15.14,34.91c-3.66,3.43-7.87,6.29-12.47,8.44
		c-0.5,0.23-1.01,0.46-1.52,0.68l-0.27,0.11c-5.67,2.37-11.89,3.68-18.42,3.68c-8.03,0-15.6-1.98-22.25-5.48
		c-0.04-0.02-0.09-0.04-0.13-0.07c-0.6-0.32-1.2-0.65-1.79-1c-3.07-1.8-5.92-3.94-8.5-6.35c-9.32-8.72-15.15-21.14-15.15-34.92
		c0-26.41,21.41-47.82,47.82-47.82C2574.07,1661.99,2595.48,1683.4,2595.48,1709.81z"/>
	<g>
		<path class="st1" d="M2580.33,1744.61c-3.66,3.46-7.87,6.34-12.47,8.51c-0.5,0.24-1.01,0.46-1.52,0.68l-0.27,0.11
			c-5.67,2.39-11.89,3.71-18.42,3.71c-8.03,0-15.6-2-22.25-5.53c-0.04-0.02-0.09-0.04-0.13-0.07c-0.6-0.32-1.2-0.66-1.79-1
			c-3.07-1.82-5.92-3.97-8.5-6.41c1.32-5.69,3.14-11.45,5.5-14.8c0.18-0.26,0.38-0.51,0.58-0.76c0.1-0.12,0.2-0.24,0.31-0.36
			c0.06-0.07,0.12-0.13,0.18-0.2c0.19-0.21,0.39-0.42,0.6-0.62c0.08-0.08,0.16-0.16,0.25-0.24c0.1-0.1,0.21-0.19,0.32-0.29
			c0.1-0.09,0.2-0.18,0.31-0.27c0.43-0.36,0.88-0.71,1.35-1.03c0.1-0.07,0.19-0.13,0.29-0.2c0.12-0.08,0.24-0.15,0.35-0.23
			c0.11-0.07,0.22-0.14,0.33-0.2c0.02-0.01,0.04-0.03,0.07-0.04c0.13-0.08,0.25-0.15,0.38-0.22c0.01,0,0.01-0.01,0.02-0.01
			c0.07-0.04,0.15-0.09,0.22-0.13c0.1-0.06,0.2-0.11,0.3-0.16c0.13-0.07,0.27-0.14,0.4-0.21c0.4-0.21,0.81-0.4,1.22-0.59
			c0.12-0.06,0.25-0.11,0.37-0.16c0.02-0.01,0.04-0.02,0.06-0.02c0.11-0.05,0.21-0.09,0.32-0.13c0.26-0.11,0.52-0.21,0.78-0.31
			c0.12-0.04,0.23-0.09,0.35-0.13c0.14-0.05,0.28-0.1,0.42-0.15c0.02-0.01,0.04-0.02,0.07-0.02c0.13-0.05,0.26-0.09,0.39-0.13
			c0.17-0.06,0.34-0.11,0.51-0.17c0.12-0.04,0.23-0.07,0.34-0.11c0.01-0.01,0.03-0.01,0.04-0.01c0.14-0.04,0.28-0.08,0.42-0.13
			c0.14-0.04,0.29-0.08,0.43-0.13c0.14-0.04,0.29-0.08,0.43-0.12c0.14-0.04,0.28-0.08,0.43-0.11h0c0.14-0.04,0.27-0.07,0.41-0.1
			c0.4-0.1,0.8-0.19,1.19-0.27c0.01,0,0.01,0,0.02-0.01c0.25-0.05,0.5-0.1,0.74-0.15c0.2-0.04,0.4-0.08,0.59-0.11
			c0.17-0.03,0.33-0.06,0.49-0.09c0.02,0,0.03-0.01,0.05-0.01c0.1-0.02,0.2-0.03,0.3-0.05c0.07-0.01,0.15-0.02,0.22-0.04
			c0.06-0.01,0.11-0.02,0.17-0.03c0.1-0.02,0.21-0.03,0.31-0.05c0.08-0.01,0.15-0.02,0.22-0.03c0.22-0.03,0.44-0.06,0.64-0.09
			c0.06-0.01,0.11-0.01,0.17-0.02c0.05-0.01,0.11-0.02,0.16-0.02c0.01,0,0.01,0,0.02,0c0.09-0.01,0.18-0.02,0.27-0.03
			c0.15-0.02,0.29-0.03,0.42-0.05c0.08-0.01,0.15-0.01,0.22-0.02h0c0.04,0,0.07-0.01,0.11-0.01c0.03,0,0.07-0.01,0.1-0.01
			c0.13-0.01,0.26-0.02,0.37-0.03c0.09-0.01,0.16-0.01,0.24-0.02c0.18-0.01,0.31-0.02,0.41-0.03c0.1-0.01,0.15-0.01,0.15-0.01h12.69
			c0,0,0,0,0,0c0.01,0,0.06,0,0.13,0.01c0.02,0,0.05,0,0.08,0.01c0.09,0,0.21,0.01,0.35,0.02h0c0.15,0.01,0.32,0.02,0.51,0.04
			c0.04,0,0.07,0.01,0.11,0.01c0.01,0,0.03,0,0.04,0c0.05,0.01,0.11,0.01,0.16,0.01c0.05,0.01,0.11,0.01,0.17,0.02
			c0.07,0.01,0.15,0.02,0.22,0.02c0.08,0.01,0.17,0.02,0.25,0.03c0.04,0,0.09,0.01,0.13,0.02c0.07,0.01,0.14,0.01,0.21,0.02
			c0.32,0.04,0.67,0.08,1.03,0.14c0.13,0.02,0.27,0.04,0.41,0.06c0.39,0.06,0.8,0.13,1.23,0.21c0.18,0.03,0.37,0.07,0.56,0.1
			c0.14,0.03,0.29,0.06,0.44,0.09c0.09,0.02,0.18,0.04,0.27,0.06c0.29,0.06,0.58,0.12,0.88,0.19c0.07,0.02,0.14,0.03,0.2,0.05
			c0.35,0.08,0.7,0.17,1.06,0.27c0.1,0.03,0.21,0.06,0.31,0.09c0.21,0.06,0.42,0.12,0.63,0.18c0.1,0.03,0.2,0.06,0.29,0.09
			c0.02,0.01,0.04,0.01,0.05,0.01c0.1,0.03,0.2,0.06,0.29,0.09c0.11,0.03,0.22,0.07,0.33,0.1c0.14,0.04,0.27,0.09,0.41,0.14
			c0.08,0.03,0.15,0.05,0.23,0.08c0.11,0.04,0.22,0.08,0.32,0.11c0.22,0.08,0.43,0.16,0.64,0.24c0.1,0.04,0.2,0.08,0.29,0.12
			c0.45,0.18,0.89,0.37,1.33,0.57c0.31,0.14,0.62,0.29,0.93,0.45c0.1,0.05,0.21,0.11,0.31,0.16c0.15,0.08,0.29,0.16,0.44,0.24
			c0.14,0.08,0.29,0.16,0.43,0.25c0.29,0.17,0.57,0.34,0.84,0.52c0.14,0.09,0.28,0.18,0.41,0.28c0.11,0.08,0.22,0.16,0.34,0.24
			c0.23,0.16,0.45,0.33,0.67,0.51c0.09,0.07,0.18,0.14,0.27,0.22c0.19,0.16,0.38,0.32,0.57,0.49c0.05,0.04,0.1,0.09,0.15,0.14
			c0.08,0.07,0.15,0.14,0.23,0.22c0.04,0.04,0.08,0.07,0.11,0.11c0.2,0.19,0.38,0.39,0.56,0.6c0.04,0.04,0.07,0.08,0.1,0.12
			c0.1,0.11,0.19,0.22,0.28,0.33c0.09,0.11,0.18,0.22,0.26,0.33c0.04,0.05,0.07,0.09,0.1,0.14c0.08,0.1,0.16,0.21,0.24,0.32
			c0.32,0.46,0.63,0.96,0.93,1.49c0.04,0.08,0.09,0.16,0.13,0.24c0.04,0.08,0.08,0.15,0.12,0.23c0.04,0.08,0.09,0.16,0.13,0.24
			c0.23,0.44,0.45,0.91,0.67,1.4c0.04,0.09,0.08,0.18,0.12,0.27c0.18,0.41,0.35,0.83,0.52,1.26c0.06,0.14,0.11,0.29,0.17,0.43
			c0.07,0.19,0.15,0.39,0.22,0.59c0.07,0.19,0.14,0.39,0.21,0.58c0.14,0.41,0.28,0.83,0.42,1.25c0.05,0.15,0.1,0.31,0.15,0.46
			c0.17,0.52,0.32,1.05,0.48,1.58c0.05,0.17,0.1,0.35,0.15,0.52c0.08,0.26,0.15,0.53,0.22,0.8c0.07,0.26,0.14,0.52,0.21,0.78
			c0.05,0.18,0.09,0.36,0.14,0.54c0,0.02,0.01,0.04,0.01,0.06c0.05,0.2,0.1,0.4,0.15,0.6c0.03,0.11,0.06,0.22,0.08,0.33
			c0.05,0.22,0.11,0.44,0.16,0.66C2580.26,1744.3,2580.3,1744.45,2580.33,1744.61z"/>
		<path class="st2" d="M2580.33,1744.64c-3.66,3.47-7.87,6.37-12.47,8.54c-0.5,0.24-1.01,0.47-1.52,0.69
			c-0.15-2.2-0.3-4.62-0.44-7.24c-0.09-1.78-0.08-3.56,0-5.31c0-0.02,0-0.04,0-0.06c0.33-6.35,1.69-12.3,2.92-16.51
			c0.15,0.08,0.29,0.16,0.44,0.24c0.14,0.08,0.29,0.16,0.43,0.25c0.29,0.17,0.57,0.34,0.84,0.52c0.14,0.09,0.28,0.18,0.41,0.28
			c0.11,0.08,0.22,0.16,0.34,0.24c0.23,0.16,0.45,0.33,0.67,0.51c0.09,0.07,0.18,0.14,0.27,0.22c0.19,0.16,0.38,0.33,0.57,0.5
			c0.05,0.05,0.1,0.09,0.15,0.14c0.08,0.07,0.15,0.14,0.23,0.22c0.04,0.04,0.08,0.08,0.11,0.11c0.2,0.19,0.38,0.39,0.56,0.6
			c0.04,0.04,0.07,0.08,0.1,0.12c0.1,0.11,0.19,0.22,0.28,0.33c0.09,0.11,0.18,0.22,0.26,0.33c0.04,0.05,0.07,0.09,0.1,0.14
			c0.08,0.11,0.16,0.21,0.24,0.32c0.32,0.46,0.63,0.96,0.93,1.5c0.04,0.08,0.09,0.16,0.13,0.24c0.04,0.08,0.08,0.15,0.12,0.23
			c0.04,0.08,0.09,0.16,0.13,0.24c0.23,0.45,0.45,0.91,0.67,1.4c0.04,0.09,0.08,0.18,0.12,0.27c0.18,0.41,0.35,0.83,0.52,1.27
			c0.06,0.14,0.11,0.29,0.17,0.43c0.07,0.2,0.15,0.39,0.22,0.59c0.07,0.19,0.14,0.39,0.21,0.58c0.14,0.41,0.28,0.83,0.42,1.25
			c0.05,0.15,0.1,0.31,0.15,0.46c0.17,0.52,0.32,1.05,0.48,1.58c0.05,0.17,0.1,0.35,0.15,0.52c0.08,0.27,0.15,0.53,0.22,0.8
			c0.07,0.26,0.14,0.52,0.21,0.79c0.05,0.18,0.09,0.36,0.14,0.54c0,0.02,0.01,0.04,0.01,0.06c0.05,0.2,0.1,0.4,0.15,0.6
			c0.03,0.11,0.06,0.22,0.08,0.33c0.05,0.22,0.11,0.45,0.16,0.67C2580.26,1744.33,2580.3,1744.49,2580.33,1744.64z"/>
		<path class="st2" d="M2533.32,1722.2c-2.12,2.93-4.51,7.07-5.96,12.24c-0.25,0.89-0.48,1.9-0.68,3.01
			c-0.75,4.07-1.2,9.39-1.4,14.56c-0.6-0.32-1.2-0.66-1.79-1c-3.07-1.82-5.92-3.97-8.5-6.41c1.32-5.69,3.14-11.45,5.5-14.79
			c0.18-0.26,0.38-0.51,0.58-0.76c0.1-0.12,0.2-0.24,0.31-0.36c0.06-0.07,0.12-0.13,0.18-0.2c0.19-0.21,0.39-0.42,0.6-0.62
			c0.08-0.08,0.16-0.16,0.25-0.24c0.1-0.1,0.21-0.19,0.32-0.29c0.1-0.09,0.2-0.18,0.31-0.27c0.43-0.36,0.88-0.71,1.35-1.03
			c0.1-0.07,0.19-0.13,0.29-0.2c0.12-0.08,0.24-0.15,0.35-0.23c0.11-0.07,0.22-0.14,0.33-0.2c0.02-0.02,0.04-0.03,0.07-0.04
			c0.13-0.08,0.25-0.15,0.38-0.22c0.01,0,0.01-0.01,0.02-0.01c0.07-0.04,0.15-0.09,0.22-0.13c0.1-0.06,0.2-0.11,0.3-0.16
			c0.13-0.07,0.27-0.14,0.4-0.21c0.4-0.21,0.81-0.4,1.22-0.59c0.12-0.06,0.25-0.11,0.37-0.16c0.02-0.01,0.04-0.02,0.06-0.02
			c0.11-0.05,0.21-0.09,0.32-0.13c0.26-0.11,0.52-0.21,0.78-0.31c0.12-0.04,0.23-0.09,0.35-0.13c0.14-0.05,0.28-0.1,0.42-0.15
			c0.02-0.01,0.04-0.02,0.07-0.02c0.13-0.05,0.26-0.09,0.39-0.13c0.17-0.06,0.34-0.11,0.51-0.17c0.12-0.04,0.23-0.07,0.34-0.11
			c0.01-0.01,0.03-0.01,0.04-0.01c0.14-0.04,0.28-0.08,0.42-0.13c0.14-0.04,0.29-0.08,0.43-0.13c0.14-0.04,0.29-0.08,0.43-0.12
			C2533.04,1722.28,2533.18,1722.24,2533.32,1722.2z"/>
		<path class="st3" d="M2526.71,1737.26c-0.01,0.07-0.02,0.13-0.02,0.2c-0.64,5.16-1.07,10.02-1.27,14.62
			c-0.04-0.02-0.09-0.04-0.13-0.07c-0.6-0.32-1.2-0.66-1.79-1C2524.24,1746.38,2525.25,1741.82,2526.71,1737.26z"/>
		<path class="st4" d="M2545.19,1726.15c0,0-0.57,11.53-0.81,16.42c-0.03,0.56,0.18,1.11,0.56,1.52c0.39,0.41,0.93,0.64,1.49,0.64
			l0,0c0.69,0,1.25-0.54,1.28-1.22c0.2-4.16,0.83-17.5,0.83-17.5l-1.62-1.01L2545.19,1726.15z"/>
		<path class="st5" d="M2541.85,1720.1c1.25,2.67,2.54,3.43,5.1,4.88l-5.05,5.51c-1.8-1.62-2.45-5.77-2.65-9.1L2541.85,1720.1z"/>
		<path class="st5" d="M2553.83,1720.1c-1.25,2.67-3.82,4.61-6.88,4.88l4.64,5.51c2.03-1.53,4-4.72,4.2-8.05L2553.83,1720.1z"/>
		<path class="st6" d="M2553.27,1688.7l0.56,26.51l0.2,6.35c0,0-0.87,3.78-7.26,3.41c-5.03-0.29-5.75-2.5-5.58-4.6
			c0.16-1.96,0.62-6.75,0.62-6.75s-9.81,1.74-9.53-10.44c0.28-12.18,0.81-11.42,0.81-11.42l14.44-6.55L2553.27,1688.7z"/>
		<path class="st4" d="M2541.34,1718.71c1.05,2.91,2.85,5.07,5.61,6.28l-4.98,4.07c-1.57-2.13-2.77-4.59-2.96-7.92L2541.34,1718.71z
			"/>
		<path class="st4" d="M2554.04,1718.71c-1.73,3.17-4.15,5.16-7.08,6.28l4.54,4.07c2.76-1.45,4.71-3.91,4.9-8.1L2554.04,1718.71z"/>
		<path class="st7" d="M2553.49,1693.88c-0.15,0.52-1.2-3.37-16.31-0.68c-12.66,2.26-9.24-8.47-4.9-11.16
			c14.37-8.93,22.91,4.55,22.91,4.55s7.21,0.55,3.81,11.28c-3.4,10.73-5.23,15.45-5.23,15.45L2553.49,1693.88z"/>
		<path class="st8" d="M2541.82,1713.6c3-0.22,5.42-0.73,7.45-1.43c-1.58,2.78-4.84,5.46-7.86,6.15L2541.82,1713.6z"/>
		<path class="st7" d="M2548.47,1705.1c0,0-17.18-4.49-16.86,1.09c0,0-0.26,8.54,8.69,8.99c10.27,0.52,12.16-6.97,12.74-12.98
			c0.59-6.01,0.39-9.87,0.39-9.87l-2.35-0.13c-0.06,1.77-0.13,3.63-0.34,5.45C2550.43,1700.37,2549.82,1702.99,2548.47,1705.1z"/>
		<g>
			<path class="st9" d="M2538.64,1708.66c-0.45,0-0.75-0.05-0.78-0.06c-0.15-0.03-0.25-0.17-0.22-0.33
				c0.03-0.15,0.18-0.25,0.33-0.22c0.03,0.01,2.53,0.44,4.48-1.53c0.11-0.11,0.28-0.11,0.39,0c0.11,0.11,0.11,0.28,0,0.39
				C2541.35,1708.41,2539.62,1708.66,2538.64,1708.66z"/>
		</g>
		<path class="st8" d="M2539.21,1700.06l-1.44,3.21c-0.07,0.15-0.06,0.32,0.03,0.46c0.08,0.14,0.22,0.22,0.37,0.22l1.72-0.02
			c0.24,0,0.42-0.21,0.41-0.47c-0.01-0.26-0.2-0.47-0.44-0.46l-1.01,0.01l1.13-2.52c0.1-0.23,0.01-0.51-0.2-0.63
			C2539.56,1699.74,2539.31,1699.83,2539.21,1700.06z"/>
		<path class="st6" d="M2553.47,1693.74c0,0,3.92-0.26,4.01,3.86c0.09,4.17-4.39,4.28-4.39,4.28l0.38-3.43V1693.74z"/>
		<path class="st8" d="M2553.91,1695.65c0.96,0.18,1.46,1.14,1.5,2.07c0.03,0.91-0.39,1.82-1.42,1.97c-0.26,0.04-0.44,0.28-0.4,0.54
			c0.04,0.26,0.28,0.44,0.54,0.4c1.56-0.22,2.28-1.57,2.23-2.94c-0.05-1.35-0.87-2.7-2.27-2.96c-0.26-0.05-0.5,0.12-0.55,0.38
			C2553.48,1695.36,2553.65,1695.61,2553.91,1695.65z"/>
		<path class="st3" d="M2566.34,1753.87c0.51-0.22,1.02-0.45,1.52-0.69c-0.9-5.12-1.4-10.7-1.59-15.4
			c-0.16,1.08-0.28,2.25-0.36,3.48c0,0.02,0,0.04,0,0.06c-0.25,3.79-0.15,8.18,0.17,12.67L2566.34,1753.87z"/>
	</g>
</g>
</svg>
